<?xml version="1.0" standalone="no"?>
<!DOCTYPE svg PUBLIC "-//W3C//DTD SVG 20010904//EN"
 "http://www.w3.org/TR/2001/REC-SVG-20010904/DTD/svg10.dtd">
<svg version="1.0" xmlns="http://www.w3.org/2000/svg"
 width="500.000000pt" height="500.000000pt" viewBox="0 0 500.000000 500.000000"
 preserveAspectRatio="xMidYMid meet">

<g transform="translate(0.000000,500.000000) scale(0.100000,-0.100000)"
fill="#ffc107" stroke="none">
<path d="M2335 4744 c-360 -36 -657 -130 -945 -297 -382 -223 -715 -585 -898
-976 -160 -344 -236 -838 -187 -1218 29 -224 115 -512 210 -708 304 -622 874
-1068 1540 -1205 370 -76 677 -64 1068 41 598 161 1109 594 1388 1174 138 288
205 576 216 925 6 220 -6 343 -56 565 -123 542 -419 978 -886 1306 -358 252
-773 386 -1225 394 -102 2 -203 1 -225 -1z m560 -123 c230 -47 382 -98 573
-196 202 -102 356 -211 511 -360 342 -329 548 -718 632 -1192 19 -106 23 -165
24 -343 0 -230 -12 -339 -61 -532 -192 -768 -825 -1382 -1599 -1552 -171 -38
-286 -50 -465 -50 -336 0 -622 66 -925 214 -435 212 -767 542 -980 975 -155
313 -218 589 -218 940 0 252 29 441 104 666 22 68 41 125 42 126 1 1 43 -10
92 -23 187 -50 391 -40 603 31 202 68 324 146 479 308 163 170 208 298 207
577 0 142 -4 175 -23 235 -39 123 -50 107 96 143 70 17 160 36 198 41 39 6 81
13 95 15 14 3 133 3 265 2 200 -3 258 -7 350 -25z"/>
<path d="M2533 3507 c-13 -5 -23 -14 -23 -19 0 -4 -6 -8 -14 -8 -7 0 -30 -18
-50 -40 -36 -40 -36 -41 -36 -129 0 -109 14 -155 44 -147 11 3 31 6 42 6 13 0
31 14 46 38 27 41 43 92 29 92 -5 0 -12 -12 -15 -26 -4 -14 -19 -37 -33 -52
l-26 -26 -18 23 c-16 19 -19 40 -19 115 0 50 4 97 8 104 13 19 36 5 49 -28 18
-48 30 -35 36 38 3 37 4 68 4 68 -1 1 -12 -3 -24 -9z"/>
<path d="M2230 3362 c-113 -56 -154 -81 -150 -92 10 -35 11 -150 1 -150 -6 0
-11 -9 -11 -20 0 -11 4 -20 10 -20 5 0 10 -37 12 -82 l3 -83 18 32 c11 21 17
54 17 97 0 61 2 66 29 82 35 21 33 33 -4 26 l-26 -5 3 69 3 69 43 0 c26 0 42
5 42 12 0 17 47 69 55 61 4 -4 8 -85 9 -181 l1 -174 23 33 c21 31 22 43 22
193 0 88 4 162 8 165 5 3 20 -1 35 -9 27 -14 27 -14 27 21 0 19 -3 34 -7 33
-5 0 -78 -35 -163 -77z"/>
<path d="M3112 3360 c-37 -43 -43 -56 -40 -88 3 -37 3 -37 53 -42 l50 -5 3
-43 c3 -38 0 -43 -23 -52 -36 -14 -45 -5 -38 33 l5 32 -26 -26 c-38 -36 -28
-74 21 -84 19 -3 36 -5 37 -3 1 2 19 24 39 49 27 34 37 56 37 82 0 36 0 36
-47 39 l-48 3 -3 53 c-3 47 -1 52 17 52 17 0 21 -6 21 -32 l0 -31 25 23 c19
18 25 33 23 55 -3 25 -8 30 -33 33 -25 2 -37 -5 -73 -48z"/>
<path d="M2933 3308 c-11 -13 -23 -31 -26 -40 -4 -10 -11 -18 -17 -18 -6 0
-10 -39 -10 -105 0 -132 -22 -186 -59 -141 -9 11 -7 21 9 48 22 36 27 116 10
149 -15 27 -65 25 -101 -6 -16 -13 -45 -27 -64 -31 -19 -3 -35 -8 -35 -9 0 -2
4 -15 10 -30 8 -21 13 -24 29 -16 27 15 31 5 31 -68 0 -69 -15 -141 -29 -141
-5 0 -11 24 -15 53 -3 28 -11 82 -18 120 l-11 67 -36 -6 c-20 -4 -38 -8 -40
-10 -2 -1 -8 -42 -13 -91 -6 -57 -14 -91 -24 -96 -17 -9 -19 -34 -3 -39 8 -3
7 -16 -2 -46 -20 -67 -29 -32 -29 111 0 70 -4 127 -8 127 -23 0 -32 -30 -32
-107 0 -71 -3 -84 -19 -93 -37 -19 -41 -12 -41 70 0 44 -4 80 -8 80 -5 0 -17
-6 -27 -14 -17 -12 -18 -28 -17 -191 1 -98 4 -180 6 -182 2 -2 13 11 25 30 15
25 21 51 21 95 0 52 3 62 25 76 13 9 27 16 30 16 3 0 5 -20 5 -45 0 -43 1 -45
30 -45 27 0 30 -3 30 -32 l1 -33 35 40 c20 23 32 45 29 54 -3 8 -9 35 -12 60
-5 36 -3 46 12 57 28 21 45 17 45 -10 0 -13 3 -31 6 -40 8 -22 60 -21 74 2 9
13 10 8 7 -25 -3 -24 -4 -43 -2 -43 2 0 13 15 24 34 15 24 21 50 21 93 0 51 3
59 19 60 14 1 21 -7 25 -33 6 -30 11 -34 37 -34 25 0 33 6 42 29 9 26 17 30
64 36 46 6 57 12 81 42 26 35 27 41 27 151 l0 115 -45 13 c-25 8 -45 14 -46
14 0 0 -10 -10 -21 -22z m56 -57 c22 -14 12 -183 -13 -210 -11 -12 -23 -21
-27 -21 -16 0 -26 68 -21 153 4 81 6 87 26 87 11 0 27 -4 35 -9z m-189 -123
c0 -43 -5 -67 -17 -80 -27 -30 -33 -21 -33 49 0 47 5 72 16 84 25 28 34 14 34
-53z m-196 -109 c6 -38 4 -48 -9 -53 -39 -15 -41 -7 -24 75 13 58 23 52 33
-22z"/>
<path d="M3527 3099 c-189 -95 -412 -200 -847 -397 -146 -67 -330 -151 -410
-188 -80 -36 -293 -131 -475 -209 -432 -187 -485 -211 -498 -224 -19 -19 -11
-200 13 -298 48 -188 123 -324 248 -445 316 -305 770 -388 1208 -219 240 93
439 274 581 531 96 174 123 365 87 608 -33 224 -123 426 -250 562 l-46 49 296
145 c202 98 296 150 296 160 0 9 -6 16 -12 15 -7 0 -93 -41 -191 -90z m-1665
-1055 c116 -81 117 -199 4 -254 -39 -19 -59 -21 -129 -19 -98 5 -139 28 -169
95 -16 36 -17 50 -8 83 24 89 90 133 192 128 56 -2 74 -8 110 -33z"/>
<path d="M2201 2948 c-18 -16 -45 -31 -62 -35 -30 -6 -37 -25 -19 -53 7 -12
12 -12 22 -2 6 6 15 12 20 12 4 0 9 -68 10 -152 l3 -152 20 29 c11 18 20 50
21 78 2 44 6 52 38 75 53 38 81 137 53 192 -7 15 -24 27 -43 31 -25 5 -37 0
-63 -23z m63 -29 c10 -51 7 -88 -10 -120 -24 -47 -39 -31 -42 45 -2 53 1 73
14 87 24 26 31 24 38 -12z"/>
<path d="M2063 2892 c-15 -12 -28 -43 -43 -102 -29 -117 -29 -118 -40 -100 -6
8 -19 43 -31 78 -11 34 -24 62 -27 62 -4 0 -17 -8 -29 -18 -21 -16 -21 -20
-11 -100 11 -82 -1 -192 -21 -192 -4 0 -15 50 -24 112 -9 62 -20 115 -24 119
-5 4 -22 5 -40 2 -34 -5 -36 -10 -49 -130 -4 -38 -12 -64 -20 -67 -17 -6 -19
-36 -3 -36 8 0 9 -16 5 -52 -4 -29 -9 -71 -12 -93 l-5 -40 36 40 c23 25 33 45
29 55 -3 8 -9 35 -12 59 -4 35 -1 47 13 58 29 21 45 16 45 -14 0 -42 14 -56
48 -51 28 4 31 2 34 -25 l3 -29 24 33 c13 18 24 37 24 43 0 6 -6 51 -12 100
-7 49 -10 91 -7 93 2 3 12 -20 22 -51 10 -31 21 -56 25 -56 11 0 43 53 46 77
2 12 10 39 18 60 l14 38 0 -41 c1 -23 4 -62 7 -88 6 -38 10 -46 28 -46 33 0
42 11 55 64 15 60 7 73 -10 17 -7 -23 -16 -41 -20 -41 -5 0 -10 63 -11 139
l-3 140 -22 -17z m-279 -253 c6 -42 5 -46 -19 -57 -30 -14 -32 -4 -14 79 13
58 23 52 33 -22z"/>
</g>
</svg>
